<svg width="183.68875427246093" height="183.68875427246093" viewBox="0 0 379.49999999999994 379.49999999999994" class="css-1j8o68f"><defs id="SvgjsDefs2555"></defs><g id="SvgjsG2556" featurekey="rootContainer" transform="matrix(1.892692602377445,0,0,1.892692602377445,0,0)" fill="#dfeaf9"><path xmlns="http://www.w3.org/2000/svg" d="M100.254 0C44.974 0 0 44.974 0 100.254s44.974 100.254 100.254 100.254c55.28 0 100.254-44.974 100.254-100.254S155.534 0 100.254 0zm0 195.508C47.731 195.508 5 152.777 5 100.254S47.731 5 100.254 5s95.254 42.73 95.254 95.254-42.731 95.254-95.254 95.254z"></path></g><g id="SvgjsG2557" featurekey="symbolFeature-0" transform="matrix(2.2681201772141932,0,0,2.2681201772141932,76.59512457642114,6.320244009114219)" fill="#fce38a"><g xmlns="http://www.w3.org/2000/svg"><path d="M25.51,53.468c-5.945,0-10.782,4.837-10.782,10.781c0,5.945,4.837,10.782,10.782,10.782s10.782-4.837,10.782-10.782   C36.292,58.305,31.456,53.468,25.51,53.468z M25.51,70.402c-3.393,0-6.153-2.761-6.153-6.153s2.76-6.152,6.153-6.152   c3.393,0,6.152,2.76,6.152,6.152S28.903,70.402,25.51,70.402z"></path><path d="M50.095,53.468c-5.945,0-10.782,4.837-10.782,10.781c0,5.945,4.836,10.782,10.782,10.782   c5.944,0,10.781-4.837,10.781-10.782C60.876,58.305,56.039,53.468,50.095,53.468z M50.095,70.402c-3.393,0-6.153-2.761-6.153-6.153   s2.76-6.152,6.153-6.152c3.393,0,6.153,2.76,6.153,6.152S53.487,70.402,50.095,70.402z"></path><path d="M74.49,53.468c-5.944,0-10.781,4.837-10.781,10.781c0,5.945,4.837,10.782,10.781,10.782s10.781-4.837,10.781-10.782   C85.271,58.305,80.435,53.468,74.49,53.468z M74.49,70.402c-3.393,0-6.152-2.761-6.152-6.153s2.76-6.152,6.152-6.152   s6.153,2.76,6.153,6.152S77.883,70.402,74.49,70.402z"></path><path d="M15.984,44.346c0.437,0.437,1.019,0.678,1.638,0.678c0.619,0,1.201-0.241,1.638-0.678l6.25-6.25l6.25,6.25   c0.438,0.437,1.019,0.677,1.638,0.677c0.62,0,1.201-0.241,1.638-0.678c0.438-0.438,0.679-1.02,0.679-1.638s-0.241-1.2-0.679-1.638   l-6.25-6.25l5.896-5.896c0.903-0.903,0.903-2.373,0-3.276c-0.875-0.875-2.401-0.874-3.275,0l-5.897,5.897l-5.897-5.897   c-0.875-0.875-2.401-0.875-3.275,0c-0.903,0.903-0.903,2.373,0,3.276l5.896,5.897l-6.25,6.25   C15.082,41.973,15.082,43.443,15.984,44.346z"></path><path d="M40.569,44.347c0.438,0.437,1.019,0.677,1.638,0.677c0.619,0,1.201-0.241,1.638-0.678l6.25-6.25l6.25,6.25   c0.437,0.437,1.019,0.678,1.638,0.678c0.618,0,1.2-0.241,1.64-0.678c0.9-0.903,0.9-2.373-0.001-3.275l-6.25-6.25l5.896-5.896   c0.902-0.903,0.902-2.373,0-3.276c-0.875-0.875-2.401-0.875-3.276,0l-5.896,5.896l-5.896-5.896c-0.875-0.875-2.402-0.875-3.276,0   c-0.903,0.903-0.903,2.373,0,3.276l5.896,5.896l-6.25,6.25C39.667,41.973,39.667,43.442,40.569,44.347z"></path><path d="M64.965,44.346c0.437,0.437,1.019,0.678,1.638,0.678s1.201-0.241,1.638-0.678l6.25-6.25l6.25,6.25   c0.438,0.437,1.021,0.677,1.639,0.677c0.62,0,1.201-0.241,1.637-0.678c0.902-0.904,0.902-2.373,0-3.276l-6.25-6.25l5.897-5.897   c0.902-0.903,0.902-2.373,0-3.276c-0.875-0.875-2.401-0.875-3.276,0l-5.896,5.896l-5.896-5.896c-0.875-0.875-2.4-0.875-3.275,0   c-0.438,0.438-0.679,1.02-0.679,1.638s0.241,1.2,0.679,1.638l5.896,5.896l-6.25,6.25C64.062,41.973,64.062,43.442,64.965,44.346z"></path></g></g><g id="SvgjsG2558" featurekey="nameFeature-0" transform="matrix(1.213710431277786,0,0,1.213710431277786,89.02903142348087,183.23176570736513)" fill="#ffffff"><path d="M13.6 13.719999999999999 l0 26.28 l-3.04 0 l0 -26.28 l-9.76 0 l0 -2.88 l22.56 0 l0 2.88 l-9.76 0 z M29.163999999999998 40 l0 -29.16 l3.08 0 l0 29.16 l-3.08 0 z M53.80799999999999 40.32 c-4 0 -7.72 -1.56 -10.32 -4.12 c-1.28 -1.28 -2.32 -2.84 -3.08 -4.68 c-0.76 -1.88 -1.16 -3.88 -1.16 -6 c0 -2.16 0.4 -4.2 1.2 -6.08 s1.84 -3.48 3.16 -4.76 c2.68 -2.6 6.4 -4.16 10.32 -4.16 c3.08 0 5.88 0.92 7.76 2.24 c0.96 0.64 1.8 1.4 2.56 2.24 c1.48 1.72 2.28 3.44 2.72 5.12 l-2.92 1.04 c-0.24 -0.96 -0.64 -2 -1.72 -3.52 c-0.56 -0.76 -1.16 -1.44 -1.88 -2.04 s-1.64 -1.12 -2.8 -1.52 c-1.16 -0.44 -2.4 -0.64 -3.8 -0.64 c-3.04 0 -5.96 1.24 -8 3.28 c-2.08 2.08 -3.4 5.16 -3.4 8.6 c0 2.28 0.48 4.36 1.48 6.2 c0.96 1.84 2.32 3.28 4.12 4.32 c1.72 1.04 3.68 1.56 5.84 1.56 c2.68 0 5 -0.92 6.4 -2.04 c0.72 -0.56 1.36 -1.2 1.92 -2 c0.56 -0.76 0.96 -1.44 1.24 -2 c0.24 -0.56 0.48 -1.16 0.68 -1.76 l2.92 1.04 c-0.44 1.56 -1.2 3.16 -2.68 4.96 c-0.72 0.88 -1.6 1.68 -2.52 2.36 c-1.92 1.36 -4.84 2.36 -8.04 2.36 z M94.416 13.719999999999999 l0 26.28 l-3.04 0 l0 -26.28 l-9.76 0 l0 -2.88 l22.56 0 l0 2.88 l-9.76 0 z M131.46 40 l-3.2 -7.44 l-15.88 0 l-3.2 7.44 l-3.12 0 l12.56 -29.16 l3.48 0 l12.6 29.16 l-3.24 0 z M127.1 29.759999999999998 l-6.8 -15.76 l-6.76 15.76 l13.56 0 z M152.344 40.32 c-4 0 -7.72 -1.56 -10.32 -4.12 c-1.28 -1.28 -2.32 -2.84 -3.08 -4.68 c-0.76 -1.88 -1.16 -3.88 -1.16 -6 c0 -2.16 0.4 -4.2 1.2 -6.08 s1.84 -3.48 3.16 -4.76 c2.68 -2.6 6.4 -4.16 10.32 -4.16 c3.08 0 5.88 0.92 7.76 2.24 c0.96 0.64 1.8 1.4 2.56 2.24 c1.48 1.72 2.28 3.44 2.72 5.12 l-2.92 1.04 c-0.24 -0.96 -0.64 -2 -1.72 -3.52 c-0.56 -0.76 -1.16 -1.44 -1.88 -2.04 s-1.64 -1.12 -2.8 -1.52 c-1.16 -0.44 -2.4 -0.64 -3.8 -0.64 c-3.04 0 -5.96 1.24 -8 3.28 c-2.08 2.08 -3.4 5.16 -3.4 8.6 c0 2.28 0.48 4.36 1.48 6.2 c0.96 1.84 2.32 3.28 4.12 4.32 c1.72 1.04 3.68 1.56 5.84 1.56 c2.68 0 5 -0.92 6.4 -2.04 c0.72 -0.56 1.36 -1.2 1.92 -2 c0.56 -0.76 0.96 -1.44 1.24 -2 c0.24 -0.56 0.48 -1.16 0.68 -1.76 l2.92 1.04 c-0.44 1.56 -1.2 3.16 -2.68 4.96 c-0.72 0.88 -1.6 1.68 -2.52 2.36 c-1.92 1.36 -4.84 2.36 -8.04 2.36 z"></path></g><g id="SvgjsG2559" featurekey="nameFeature-1" transform="matrix(2.4676735833709165,0,0,2.4676735833709165,88.02586066263189,215.9413565106984)" fill="#ffffff"><path d="M13.6 13.719999999999999 l0 26.28 l-3.04 0 l0 -26.28 l-9.76 0 l0 -2.88 l22.56 0 l0 2.88 l-9.76 0 z M56.444 25.36 c0 2.76 -0.64 5.28 -1.88 7.56 c-1.28 2.28 -3.04 4.08 -5.28 5.4 c-2.28 1.32 -4.76 2 -7.56 2 c-2.04 0 -3.96 -0.4 -5.8 -1.16 c-1.8 -0.76 -3.36 -1.8 -4.64 -3.16 c-1.28 -1.28 -2.28 -2.84 -3.04 -4.68 c-0.72 -1.84 -1.12 -3.76 -1.12 -5.8 c0 -2.76 0.64 -5.28 1.92 -7.56 c1.24 -2.28 3 -4.12 5.28 -5.44 c2.24 -1.32 4.76 -1.96 7.52 -1.96 c2.04 0 3.96 0.36 5.8 1.12 c1.8 0.8 3.36 1.84 4.64 3.12 c1.28 1.36 2.32 2.92 3.04 4.72 c0.76 1.84 1.12 3.76 1.12 5.84 z M53.284 25.52 c0 -3.28 -1.2 -6.32 -3.2 -8.52 s-5 -3.6 -8.36 -3.6 c-2.16 0 -4.12 0.56 -5.88 1.6 c-1.76 1.12 -3.12 2.56 -4.08 4.36 c-0.96 1.84 -1.44 3.84 -1.44 6 c0 3.24 1.2 6.32 3.2 8.48 c2 2.2 5 3.6 8.32 3.6 c2.16 0 4.12 -0.56 5.88 -1.64 c1.8 -1.04 3.16 -2.52 4.12 -4.32 s1.44 -3.8 1.44 -5.96 z M63.448 40 l0 -29.16 l18.24 0 l0 2.84 l-15.16 0 l0 10.08 l13.88 0 l0 2.84 l-13.88 0 l0 10.56 l15.32 0 l0 2.84 l-18.4 0 z"></path></g></svg>